{"title":"BORDER (2014) Complete (Hardsubbed) BANKAI","uid":10329445,"size":1611822562,"categoryP":"video","categoryS":"tv_shows","magnet":"?xt=urn:btih:84426e0928a7a4c82b66a3a6e295cc321d85b24b&amp;dn=BORDER+%282014%29+Complete+%28Hardsubbed%29+BANKAI&amp;tr=udp%3A%2F%2Ftracker.openbittorrent.com%3A80&amp;tr=udp%3A%2F%2Fopen.demonii.com%3A1337&amp;tr=udp%3A%2F%2Ftracker.coppersurfer.tk%3A6969&amp;tr=udp%3A%2F%2Fexodus.desync.com%3A6969","seeders":1,"leechers":0,"uploader":"8ankai","files":9,"time":1402396776,"description":"BORDER (2014) Complete (Hardsubbed) BANKAI\n &lt;a href=&quot;\nhttps://i.imgur.com/zNPkApt.jpg&quot; rel=&quot;nofollow&quot; target=&quot;_NEW&quot;&gt;\nhttps://i.imgur.com/zNPkApt.jpg&lt;/a&gt;\n\n\nINFO:\nTitle (romaji) : BORDER\nFormat : Renzoku\nGenre : Mystery, suspense\nEpisodes : 9\nBroadcast network : TV Asahi\nTheme song: evils fall by MAN WITH A MISSION\nEncoder : BANKAI  \nSubtitle : ENGLISH HARDSUBBED\n\n* English Subtitles by Hello Heydays\n* Raws by furransu\n\n\nCAST:\nOguri Shun as Ishikawa Ango\nAoki Munetaka as Tachibana Yuma\nHaru as Higa Mika\nEndo Kenichi as Ichikura Takuji\nFuruta Arata as Akai\nTakito Kenichi as Suzuki\nNomaguchi Toru as Hacker Garfunkel\nHamano Kenta as Hacker Simon\n\n\nSYNOPSIS:\nIshikawa Ango (Oguri Shun) is a detective with smarts and a keen sense of observation. He's in a great physical shape and also highly ambitious. Ango also only focuses on his work and his personal life is pretty much non-existent.\n\nOne day, a former police officer is killed by a gun shot. Ango goes to the scene of the crime, but is shot in the head by the killer who is lurking at the crime scene. Ango hovers between life and death. At that time, he thinks to himself &quot;where do people go after they die?&quot; and then &quot;I don't want to die.&quot; A miracle then happens. Ango survives with the bullet still lodged in his head. He goes back to work.\n\nA new murder case takes place. When Ango goes to the crime scene he notices a boy who looks like he is about to cry, but only Ango is able to see the boy. The boy is the one who was killed. Since Ango was shot, he can now see and talk with the dead.\n\n\nVIDEO INFO:\nFormat : MPEG-4 \nFormat profile : Base Media \nCodec ID : isom \nFile size : 166 MiB \nDuration : 46mn 14s \nOverall bit rate mode : Variable \nOverall bit rate : 502 Kbps  \n\nVideo \nFormat : AVC \nFormat/Info : Advanced Video Codec \nFormat profile : &lt;a class=&quot;__cf_email__&quot; href=&quot;/cdn-cgi/l/email-protection&quot; data-cfemail=&quot;327a5b555a727e011c03&quot;&gt;[email&amp;#160;protected]&lt;/a&gt;&lt;script cf-hash='f9e31' type=&quot;text/javascript&quot;&gt;\n/* &lt;![CDATA[ */!function(){try{var t=&quot;currentScript&quot;in document?document.currentScript:function(){for(var t=document.getElementsByTagName(&quot;script&quot;),e=t.length;e--;)if(t[e].getAttribute(&quot;cf-hash&quot;))return t[e]}();if(t&amp;&amp;t.previousSibling){var e,r,n,i,c=t.previousSibling,a=c.getAttribute(&quot;data-cfemail&quot;);if(a){for(e=&quot;&quot;,r=parseInt(a.substr(0,2),16),n=2;a.length-n;n+=2)i=parseInt(a.substr(n,2),16)^r,e+=String.fromCharCode(i);e=document.createTextNode(e),c.parentNode.replaceChild(e,c)}}}catch(u){}}();/* ]]&gt; */&lt;/script&gt; \nFormat settings, CABAC : Yes \nFormat settings, ReFrames : 4 frames \nCodec ID : avc1 \nCodec ID/Info : Advanced Video Coding \nDuration : 46mn 14s \nBit rate : 306 Kbps \nMaximum bit rate : 2 280 Kbps \nWidth : 848 pixels \nHeight : 480 pixels \nDisplay aspect ratio : 16:9 \nFrame rate mode : Constant \nFrame rate : 29.970 fps \nColor space : YUV \nChroma subsampling : 4:2:0 \nBit depth : 8 bits \nScan type : Progressive \nBits/(Pixel*Frame) : 0.025 \nStream size : 101 MiB (61%) \n\nAudio \nFormat : AAC \nFormat/Info : Advanced Audio Codec \nFormat profile : LC \nCodec ID : 40 \nDuration : 46mn 14s \nBit rate mode : Variable \nBit rate : 192 Kbps \nMaximum bit rate : 221 Kbps \nChannel(s) : 2 channels \nChannel positions : Front: L R \nSampling rate : 44.1 KHz \nCompression mode : Lossy \nStream size : 63.4 MiB (38%) \n\n\nSCREENSHOT: &lt;a href=&quot;\nhttps://i.imgur.com/QpKVJ4e.jpg&quot; rel=&quot;nofollow&quot; target=&quot;_NEW&quot;&gt;\nhttps://i.imgur.com/QpKVJ4e.jpg&lt;/a&gt; &lt;a href=&quot;\nhttps://i.imgur.com/pHjeFay.jpg&quot; rel=&quot;nofollow&quot; target=&quot;_NEW&quot;&gt;\nhttps://i.imgur.com/pHjeFay.jpg&lt;/a&gt; &lt;a href=&quot;\nhttps://i.imgur.com/ul729ss.jpg&quot; rel=&quot;nofollow&quot; target=&quot;_NEW&quot;&gt;\nhttps://i.imgur.com/ul729ss.jpg&lt;/a&gt;\n\n\nEnjoy &amp; Please Seed!!","torrent":{"xt":"urn:btih:84426e0928a7a4c82b66a3a6e295cc321d85b24b","amp;dn":"BORDER+%282014%29+Complete+%28Hardsubbed%29+BANKAI","amp;tr":["udp%3A%2F%2Ftracker.openbittorrent.com%3A80","udp%3A%2F%2Fopen.demonii.com%3A1337","udp%3A%2F%2Ftracker.coppersurfer.tk%3A6969","udp%3A%2F%2Fexodus.desync.com%3A6969"],"infoHash":"84426e0928a7a4c82b66a3a6e295cc321d85b24b","infoHashBuffer":{"type":"Buffer","data":[132,66,110,9,40,167,164,200,43,102,163,166,226,149,204,50,29,133,178,75]},"announce":[],"urlList":[]}}